HIERARCHY
ROOT Hips
{
	OFFSET 0.00000 0.00000 0.00000
	CHANNELS 6 Xposition Yposition Zposition Zrotation Yrotation Xrotation 
	JOINT LHipJoint
	{
		OFFSET 0 0 0
		CHANNELS 3 Zrotation Yrotation Xrotation
		JOINT LeftHip
		{
			OFFSET 1.42489 -1.84941 0.69647
			CHANNELS 3 Zrotation Yrotation Xrotation
			JOINT LeftKnee
			{
				OFFSET 2.44443 -6.71602 0.00000
				CHANNELS 3 Zrotation Yrotation Xrotation
				JOINT LeftAnkle
				{
					OFFSET 2.62838 -7.22137 0.00000
					CHANNELS 3 Zrotation Yrotation Xrotation
					JOINT LeftToe
					{
						OFFSET 0.24036 -0.66037 2.29953
						CHANNELS 3 Zrotation Yrotation Xrotation
						End Site
						{
							OFFSET 0.00000 -0.00000 1.19837
						}
					}
				}
			}
		}
	}
	JOINT RHipJoint
	{
		OFFSET 0 0 0
		CHANNELS 3 Zrotation Yrotation Xrotation
		JOINT RightHip
		{
			OFFSET -1.37055 -1.84941 0.69647
			CHANNELS 3 Zrotation Yrotation Xrotation
			JOINT RightKnee
			{
				OFFSET -2.54834 -7.00152 0.00000
				CHANNELS 3 Zrotation Yrotation Xrotation
				JOINT RightAnkle
				{
					OFFSET -2.65692 -7.29983 0.00000
					CHANNELS 3 Zrotation Yrotation Xrotation
					JOINT RightToe
					{
						OFFSET -0.18839 -0.51760 2.29390
						CHANNELS 3 Zrotation Yrotation Xrotation
						End Site
						{
							OFFSET -0.00000 -0.00000 1.18261
						}
					}
				}
			}
		}
	}
	JOINT lowerback
	{
		OFFSET 0 0 0
		CHANNELS 3 Zrotation Yrotation Xrotation
		JOINT Chest
		{
			OFFSET 0.05220 2.15489 0.05011
			CHANNELS 3 Zrotation Yrotation Xrotation
			JOINT Chest2
			{
				OFFSET -0.07653 2.14219 -0.05668
				CHANNELS 3 Zrotation Yrotation Xrotation
				JOINT lowerneck
				{
					OFFSET 0 0 0
					CHANNELS 3 Zrotation Yrotation Xrotation
					JOINT Neck
					{
						OFFSET 0.01370 1.58638 0.01447
						CHANNELS 3 Zrotation Yrotation Xrotation
						JOINT Head
						{
							OFFSET 0.23548 1.54190 -0.21747
							CHANNELS 3 Zrotation Yrotation Xrotation
							End Site
							{
								OFFSET 0.07132 1.59823 -0.08163
							}
						}
					}
				}
				JOINT LeftCollar
				{
					OFFSET 0 0 0
					CHANNELS 3 Zrotation Yrotation Xrotation
					JOINT LeftShoulder
					{
						OFFSET 3.47056 1.45357 -0.58896
CHANNELS 3 Zrotation Xrotation Yrotation
						JOINT LeftElbow
						{
OFFSET 0 -5.190690 0.000000
CHANNELS 3 Zrotation Xrotation Yrotation
							JOINT LeftWrist
							{
OFFSET 0 -3.300160 0.000000
CHANNELS 3 Zrotation Xrotation Yrotation
								JOINT lhand
								{
									OFFSET 0 0 0
CHANNELS 3 Zrotation Xrotation Yrotation
									JOINT LFingers
									{
OFFSET 0 -0.707700 0.000000
CHANNELS 3 Zrotation Xrotation Yrotation
										End Site
										{
OFFSET 0 -0.570560 0.000000
										}
									}
								}
								JOINT LThumb
								{
OFFSET 0 0.000000 0.000000
CHANNELS 3 Zrotation Xrotation Yrotation
									End Site
									{
OFFSET 0 -0.579280 0.579280
									}
								}
							}
						}
					}
				}
				JOINT RightCollar
				{
					OFFSET 0 0 0
					CHANNELS 3 Zrotation Yrotation Xrotation
					JOINT RightShoulder
					{
						OFFSET -2.89018 2.03305 -0.26731
CHANNELS 3 Zrotation Xrotation Yrotation
						JOINT RightElbow
						{
OFFSET 0 -5.239240 0.000000
CHANNELS 3 Zrotation Xrotation Yrotation
							JOINT RightWrist
							{
OFFSET 0 -3.329530 0.000000
CHANNELS 3 Zrotation Xrotation Yrotation
								JOINT rhand
								{
									OFFSET 0 0 0
CHANNELS 3 Zrotation Xrotation Yrotation
									JOINT RFingers
									{
OFFSET 0 -0.607410 0.000000
CHANNELS 3 Zrotation Xrotation Yrotation
										End Site
										{
OFFSET 0 -0.489710 0.000000
										}
									}
								}
								JOINT RThumb
								{
OFFSET 0 0.000000 0.000000
CHANNELS 3 Zrotation Xrotation Yrotation
									End Site
									{
OFFSET 0 -0.497190 0.497190
									}
								}
							}
						}
					}
				}
			}
		}
	}
}
MOTION
Frames: 10
Frame Time: 0.008333333333333333
10.333600 17.182500 4.264900 -14.318000 -61.602900 15.001500 0.000000 0.000000 0.000000 -13.621600 -0.192500 -15.375400 3.718500 11.776100 34.944500 1.805500 -4.196800 -24.417800 0.057900 -1.553000 -4.271800 0.000000 0.000000 0.000000 29.829200 -2.399700 -15.866500 -3.681100 -11.723500 34.760800 -1.972400 -2.851800 -27.681400 -0.000600 -0.154700 0.424900 7.513300 -0.487800 -6.475700 0.366300 -1.400600 3.179300 -4.006100 -0.363100 6.836700 -5.417300 -3.789700 -9.796800 11.181400 -5.679500 9.097400 3.949500 -2.357400 4.818100 -0.000000 -0.000000 0.000000 29.490500 4.144000 -60.038500 14.179300 -22.990400 2.897800 5.680300 -9.045000 3.170600 0.000000 0.000000 0.000000 -7.125000 0.000000 0.000000 -15.820700 26.698500 -7.288500 -0.000000 -0.000000 0.000000 -21.605700 11.128800 50.279100 -9.384900 -15.771800 -1.302800 -4.188800 21.142200 3.892900 0.000000 0.000000 0.000000 7.125000 0.000000 -0.000000 18.161600 33.441600 5.379400
10.334983 17.182244 4.253580 -14.316900 -61.538108 15.057495 0.000000 0.000000 0.000000 -13.538788 -0.094980 -15.542556 3.726642 11.787494 34.984250 1.795530 -4.372045 -24.320005 0.058605 -1.561010 -4.293846 0.000000 0.000000 0.000000 29.901024 -2.393677 -15.947944 -3.678227 -11.719470 34.746655 -1.966269 -2.938146 -27.677997 -0.000322 -0.110421 0.303479 7.500032 -0.486884 -6.473702 0.374304 -1.396414 3.142386 -3.989123 -0.364256 6.796772 -5.468276 -3.806053 -9.677762 11.268061 -5.700758 9.005398 3.984858 -2.370877 4.775789 0.000000 0.000000 0.000000 29.329847 4.185261 -59.847757 14.102149 -22.880551 2.867689 5.723122 -8.700504 3.182748 0.000000 0.000000 0.000000 -7.125000 0.000000 0.000000 -15.787326 26.687071 -7.276439 0.000000 0.000000 0.000000 -21.624507 11.241788 50.390717 -9.424973 -15.835191 -1.313678 -4.195750 20.952343 3.874695 0.000000 0.000000 0.000000 7.125000 0.000000 0.000000 18.152400 33.424625 5.384283
10.334878 17.182400 4.247156 -14.322681 -61.517337 15.066875 0.000000 0.000000 0.000000 -13.505393 -0.141197 -15.573045 3.730438 11.792828 35.002988 1.793128 -4.365613 -24.304190 0.057687 -1.549347 -4.261699 0.000000 0.000000 0.000000 29.927888 -2.424307 -15.970635 -3.675297 -11.715306 34.732206 -1.967131 -2.894103 -27.664906 -0.000500 -0.144916 0.398135 7.526113 -0.481081 -6.472778 0.365072 -1.390516 3.144900 -4.012875 -0.359769 6.799125 -5.487125 -3.822131 -9.652124 11.331048 -5.727053 8.982925 4.006016 -2.382475 4.769453 0.000000 0.000000 0.000000 29.439320 4.214604 -60.199473 14.169094 -22.975904 2.893797 5.753554 -9.031782 3.119577 0.000000 0.000000 0.000000 -7.125000 0.000000 0.000000 -15.773234 26.748354 -7.245793 0.000000 0.000000 0.000000 -21.594696 11.307979 50.408375 -9.431409 -15.845275 -1.315422 -4.106583 20.937913 3.843115 0.000000 0.000000 0.000000 7.125000 0.000000 0.000000 18.215648 33.390446 5.420620
10.334917 17.182517 4.240653 -14.342923 -61.493318 15.092670 0.000000 0.000000 0.000000 -13.462450 -0.170340 -15.610968 3.734792 11.798913 35.024162 1.790928 -4.376525 -24.286762 0.056648 -1.535926 -4.224868 0.000000 0.000000 0.000000 29.966809 -2.439338 -15.991427 -3.671611 -11.710125 34.714154 -1.965314 -2.889134 -27.650615 -0.000600 -0.152866 0.420006 7.549748 -0.484761 -6.463778 0.361317 -1.396333 3.139922 -4.030577 -0.362041 6.787489 -5.490053 -3.825531 -9.632451 11.378256 -5.738061 8.980461 4.020786 -2.386352 4.767986 0.000000 0.000000 0.000000 29.523559 4.266939 -60.533588 14.237765 -23.073618 2.920698 5.780435 -9.343586 3.032492 0.000000 0.000000 0.000000 -7.125000 0.000000 0.000000 -15.764983 26.832718 -7.209061 0.000000 0.000000 0.000000 -21.541612 11.353628 50.360000 -9.412075 -15.814683 -1.310147 -3.996315 21.022047 3.783479 0.000000 0.000000 0.000000 7.125000 0.000000 0.000000 18.289525 33.328790 5.473471
10.335313 17.182544 4.234337 -14.366582 -61.474449 15.121026 0.000000 0.000000 0.000000 -13.420517 -0.187456 -15.645433 3.738475 11.804056 35.042232 1.788850 -4.387251 -24.270856 0.056300 -1.531275 -4.211994 0.000000 0.000000 0.000000 30.006702 -2.437693 -16.009726 -3.669519 -11.707150 34.703625 -1.964075 -2.893869 -27.644287 -0.000656 -0.164819 0.452958 7.566957 -0.490588 -6.450943 0.363994 -1.404494 3.135425 -4.037975 -0.365981 6.774106 -5.496181 -3.821612 -9.620468 11.417095 -5.738350 8.988132 4.034175 -2.384900 4.769725 0.000000 0.000000 0.000000 29.570624 4.305157 -60.775278 14.286219 -23.142394 2.939663 5.788174 -9.556495 2.968887 0.000000 0.000000 0.000000 -7.125000 0.000000 0.000000 -15.767713 26.894345 -7.186562 0.000000 0.000000 0.000000 -21.481404 11.383545 50.259420 -9.374154 -15.754716 -1.299856 -3.857069 21.157750 3.704878 0.000000 0.000000 0.000000 7.125000 0.000000 0.000000 18.381967 33.247671 5.541809
10.335981 17.182500 4.228217 -14.372542 -61.465598 15.128356 0.000000 0.000000 0.000000 -13.393502 -0.194041 -15.666420 3.740281 11.806477 35.050811 1.786937 -4.389870 -24.256962 0.056691 -1.536974 -4.227554 0.000000 0.000000 0.000000 30.033593 -2.427938 -16.022808 -3.669000 -11.706400 34.701095 -1.964091 -2.893175 -27.644049 -0.000895 -0.188948 0.518985 7.562190 -0.498436 -6.429210 0.371999 -1.413136 3.133805 -4.027365 -0.371388 6.758913 -5.490782 -3.810957 -9.608585 11.427467 -5.726613 8.990656 4.037691 -2.378850 4.767598 0.000000 0.000000 0.000000 29.482495 4.309747 -60.628517 14.239939 -23.076658 2.921486 5.758331 -9.382775 3.015258 0.000000 0.000000 0.000000 -7.125000 0.000000 0.000000 -15.783620 26.849204 -7.211855 0.000000 0.000000 0.000000 -21.439970 11.408105 50.173801 -9.337912 -15.697277 -1.289968 -3.734960 21.263729 3.631895 0.000000 0.000000 0.000000 7.125000 0.000000 0.000000 18.461988 33.172732 5.603602
10.336872 17.182634 4.222275 -14.351557 -61.463803 15.107292 0.000000 0.000000 0.000000 -13.384966 -0.200538 -15.676994 3.739862 11.805994 35.049047 1.784690 -4.384971 -24.241440 0.057200 -1.543275 -4.245091 0.000000 0.000000 0.000000 30.041969 -2.422094 -16.034688 -3.669603 -11.707238 34.704081 -1.964800 -2.882480 -27.644047 -0.001134 -0.216339 0.594423 7.535860 -0.505957 -6.398185 0.379619 -1.418441 3.134641 -4.004398 -0.376047 6.741724 -5.459916 -3.798743 -9.598202 11.407251 -5.711730 8.984709 4.027440 -2.372103 4.761190 0.000000 0.000000 0.000000 29.308616 4.287002 -60.203887 14.131945 -22.922927 2.879295 5.694830 -8.943030 3.159099 0.000000 0.000000 0.000000 -7.125000 0.000000 0.000000 -15.811486 26.709751 -7.279585 0.000000 0.000000 0.000000 -21.424556 11.440937 50.158473 -9.321075 -15.670659 -1.285459 -3.668830 21.303072 3.595328 0.000000 0.000000 0.000000 7.125000 0.000000 0.000000 18.506073 33.135059 5.636044
10.338067 17.182873 4.216711 -14.325389 -61.463547 15.080616 0.000000 0.000000 0.000000 -13.380917 -0.206947 -15.684652 3.739227 11.805053 35.045712 1.782539 -4.388220 -24.225938 0.056780 -1.537441 -4.229059 0.000000 0.000000 0.000000 30.044622 -2.424722 -16.047860 -3.670073 -11.707947 34.706467 -1.964927 -2.867486 -27.638449 -0.001373 -0.241664 0.663950 7.508501 -0.510155 -6.364537 0.383455 -1.418980 3.136835 -3.984338 -0.378267 6.724978 -5.423277 -3.789537 -9.584440 11.386458 -5.701064 8.971974 4.015788 -2.367539 4.752449 0.000000 0.000000 0.000000 29.208814 4.269931 -59.986383 14.082908 -22.853075 2.860194 5.637937 -8.707876 3.268990 0.000000 0.000000 0.000000 -7.125000 0.000000 0.000000 -15.838913 26.603197 -7.334551 0.000000 0.000000 0.000000 -21.417839 11.483350 50.213571 -9.325167 -15.677117 -1.286602 -3.653268 21.285643 3.593494 0.000000 0.000000 0.000000 7.125000 0.000000 0.000000 18.517771 33.132673 5.641108
10.339375 17.183000 4.211550 -14.313950 -61.465651 15.069262 0.000000 0.000000 0.000000 -13.370124 -0.208486 -15.697977 3.739438 11.805350 35.046800 1.780812 -4.403828 -24.211061 0.055837 -1.525411 -4.195858 0.000000 0.000000 0.000000 30.052251 -2.430688 -16.063802 -3.670213 -11.708025 34.706863 -1.964225 -2.854374 -27.627749 -0.001600 -0.255763 0.702851 7.493249 -0.511500 -6.336098 0.385138 -1.417075 3.140613 -3.973162 -0.378487 6.713074 -5.405213 -3.785437 -9.575813 11.387001 -5.698275 8.968301 4.013250 -2.365975 4.749125 0.000000 0.000000 0.000000 29.218840 4.268450 -60.108780 14.119205 -22.904856 2.874352 5.610249 -8.792250 3.292136 0.000000 0.000000 0.000000 -7.125000 0.000000 0.000000 -15.856288 26.580551 -7.351987 0.000000 0.000000 0.000000 -21.417826 11.530117 50.327987 -9.346202 -15.710429 -1.292276 -3.660864 21.205253 3.583923 0.000000 0.000000 0.000000 7.125000 0.000000 0.000000 18.509786 33.123835 5.642576
10.340961 17.183000 4.206768 -14.311210 -61.474682 15.069225 0.000000 0.000000 0.000000 -13.356956 -0.194122 -15.718655 3.740255 11.806458 35.050829 1.779187 -4.429449 -24.195795 0.055148 -1.515820 -4.169269 0.000000 0.000000 0.000000 30.061318 -2.431343 -16.082711 -3.670603 -11.708706 34.709122 -1.962842 -2.843601 -27.614121 -0.001600 -0.259077 0.711725 7.481669 -0.512003 -6.314460 0.388435 -1.415239 3.144980 -3.962614 -0.378400 6.705756 -5.412005 -3.785152 -9.581021 11.403572 -5.700971 8.988609 4.019454 -2.366000 4.757134 0.000000 0.000000 0.000000 29.249836 4.266275 -60.306926 14.168562 -22.975196 2.893572 5.609688 -8.934952 3.269108 0.000000 0.000000 0.000000 -7.125000 0.000000 0.000000 -15.859737 26.602882 -7.345109 0.000000 0.000000 0.000000 -21.423693 11.572341 50.452261 -9.371652 -15.750789 -1.299141 -3.676878 21.098579 3.550020 0.000000 0.000000 0.000000 7.125000 0.000000 0.000000 18.490151 33.092387 5.650851
